<svg width="16" height="20" viewBox="0 0 16 20" fill="none" xmlns="http://www.w3.org/2000/svg">
<path d="M4.62797 18.5637H7.43927V16.5201C2.87934 16.3353 0.129883 13.8326 0.129883 8.45771H1.2544C1.2544 13.3511 3.7902 15.5011 8.00153 15.5011C12.2129 15.5011 14.8049 13.3735 14.7487 8.45771H15.8732C15.8732 13.911 13.1462 16.3353 8.5638 16.5201V18.5637H11.3751V19.6835H4.62797V18.5637ZM3.4416 7.0076C3.4416 2.67966 5.00468 0.664062 8.00153 0.664062C10.9984 0.664062 12.6177 2.67966 12.6177 7.08598C12.6177 11.9514 11.0546 14.051 8.00153 14.051C4.94846 14.051 3.4416 11.845 3.4416 7.0076ZM11.347 9.5159H9.1373V8.42971H11.4594C11.4985 8.05778 11.5154 7.68386 11.51 7.30994H9.1373V6.25175H11.4819C11.4655 5.87692 11.4299 5.50317 11.3751 5.13197H9.12606V4.05139H11.094C10.9304 3.36509 10.5301 2.75772 9.96294 2.33515C9.39576 1.91259 8.69765 1.70163 7.99029 1.73905C6.47781 1.73905 5.42638 2.4893 4.91472 4.07938L6.86014 4.05139V5.17116H4.6842C4.61842 5.54096 4.5827 5.91543 4.57737 6.29094H6.87139V7.36593H4.54925C4.54925 7.76905 4.57737 8.14977 4.59986 8.4857H6.8489V9.5159L4.71231 9.54389C5.14525 11.9066 6.2529 12.9592 7.97904 12.9592C9.81201 12.948 10.9422 11.873 11.347 9.5159Z" fill="black"/>
</svg>
